<?xml version="1.0" encoding="UTF-8"?>
<svg version="1.1" xmlns="http://www.w3.org/2000/svg" width="500" height="104">
<path d="M0 0 C0.33 0 0.66 0 1 0 C0.43639389 8.32172612 -0.88621077 16.36668554 -2.50390625 24.54296875 C-2.86801857 26.41738396 -2.86801857 26.41738396 -3.23948669 28.32966614 C-3.87836057 31.61335168 -4.52190843 34.89604677 -5.16784668 38.17834473 C-5.82880535 41.54324382 -6.48345308 44.90937004 -7.13867188 48.27539062 C-8.42004095 54.85139211 -9.70759806 61.42615845 -11 68 C-15.62303925 69.31255041 -20.24943352 70.61222461 -24.87939453 71.90014648 C-26.45362324 72.3399902 -28.02688113 72.78332414 -29.59912109 73.23022461 C-31.86048579 73.87234933 -34.12505569 74.50180156 -36.390625 75.12890625 C-37.09181458 75.33093155 -37.79300415 75.53295685 -38.51544189 75.74110413 C-41.97671228 76.68591471 -44.59340391 77.37867846 -48 76 C-42.1942352 66.39859012 -36.31646378 56.85936035 -30.19140625 47.45800781 C-26.81338845 42.26965793 -23.48735503 37.05088372 -20.1875 31.8125 C-19.7018457 31.04260742 -19.21619141 30.27271484 -18.71582031 29.47949219 C-16.51631189 25.99253626 -14.31776369 22.50498483 -12.12207031 19.015625 C-10.18894212 15.94575957 -8.25109937 12.87891258 -6.3125 9.8125 C-5.39343872 8.34937378 -5.39343872 8.34937378 -4.45581055 6.85668945 C-3.88902588 5.96167725 -3.32224121 5.06666504 -2.73828125 4.14453125 C-2.23337158 3.34378174 -1.72846191 2.54303223 -1.20825195 1.71801758 C-0.80952881 1.15107178 -0.41080566 0.58412598 0 0 Z " fill="#4B90F0" transform="translate(125,13)"/>
<path d="M0 0 C0.69351563 0.37511719 1.38703125 0.75023437 2.1015625 1.13671875 C2.72804687 1.42160156 3.35453125 1.70648438 4 2 C6.0088485 1.01789629 8.00787329 0.01559401 10 -1 C15.04657149 -1.53121805 17.93297187 -1.0502711 22 2 C24.40879165 4.06467856 24.96331553 4.88994659 26 8 C26.08266486 9.91906917 26.10740663 11.84089474 26.09765625 13.76171875 C26.09443359 14.87998047 26.09121094 15.99824219 26.08789062 17.15039062 C26.07532227 18.90125977 26.07532227 18.90125977 26.0625 20.6875 C26.05798828 21.86634766 26.05347656 23.04519531 26.04882812 24.25976562 C26.03703273 27.17322789 26.0205727 30.08658863 26 33 C22.7 33 19.4 33 16 33 C15.95101562 31.67484375 15.90203125 30.3496875 15.8515625 28.984375 C15.77651682 27.23956283 15.70096976 25.49477218 15.625 23.75 C15.5940625 22.87730469 15.563125 22.00460938 15.53125 21.10546875 C15.47324219 19.83896484 15.47324219 19.83896484 15.4140625 18.546875 C15.3826416 17.77182617 15.3512207 16.99677734 15.31884766 16.19824219 C14.96973494 13.79134258 14.19448896 12.10397705 13 10 C11.33388095 9.957279 9.66617115 9.95936168 8 10 C6.34920558 11.65079442 6.77450553 13.63736179 6.68359375 15.91015625 C6.64169922 16.89951172 6.59980469 17.88886719 6.55664062 18.90820312 C6.51732422 19.94912109 6.47800781 20.99003906 6.4375 22.0625 C6.39431641 23.10728516 6.35113281 24.15207031 6.30664062 25.22851562 C6.20018895 27.81883972 6.09955692 30.40940175 6 33 C2.37 33 -1.26 33 -5 33 C-5.06058594 31.42347656 -5.12117188 29.84695312 -5.18359375 28.22265625 C-5.26797987 26.16926057 -5.35262883 24.11587569 -5.4375 22.0625 C-5.47681641 21.02158203 -5.51613281 19.98066406 -5.55664062 18.90820312 C-5.59853516 17.91884766 -5.64042969 16.92949219 -5.68359375 15.91015625 C-5.72025146 14.99371338 -5.75690918 14.07727051 -5.79467773 13.13305664 C-5.77003864 11.0179272 -5.77003864 11.0179272 -7 10 C-9.45792029 9.66656449 -9.45792029 9.66656449 -12 10 C-14.08745045 13.13117567 -14.27653996 14.06946224 -14.4140625 17.66796875 C-14.47207031 19.00698242 -14.47207031 19.00698242 -14.53125 20.37304688 C-14.57765625 21.76620117 -14.57765625 21.76620117 -14.625 23.1875 C-14.68300781 24.59805664 -14.68300781 24.59805664 -14.7421875 26.03710938 C-14.83642674 28.35775066 -14.91930123 30.67884841 -15 33 C-18.3 33 -21.6 33 -25 33 C-25 22.11 -25 11.22 -25 0 C-21.7 0 -18.4 0 -15 0 C-14.67 0.66 -14.34 1.32 -14 2 C-13.360625 1.484375 -12.72125 0.96875 -12.0625 0.4375 C-7.85765543 -1.53620255 -4.4546641 -1.05987536 0 0 Z " fill="#202020" transform="translate(187,39)"/>
<path d="M0 0 C3.79610056 2.8272798 7.19506091 5.92485448 10.62109375 9.18359375 C11.25080078 9.77462891 11.88050781 10.36566406 12.52929688 10.97460938 C16.31885452 14.54606298 19.98938113 18.19586569 23.55810547 21.98876953 C26.26465245 24.29043204 28.72895839 24.43627555 32.18359375 24.37109375 C32.79332031 24.04238281 33.40304687 23.71367188 34.03125 23.375 C36.79000234 22.08824981 38.90520741 22.17398931 41.93359375 22.24609375 C43.41085937 22.27316406 43.41085937 22.27316406 44.91796875 22.30078125 C45.665625 22.32398437 46.41328125 22.3471875 47.18359375 22.37109375 C44.5837895 28.39169308 41.19995635 31.79736642 35.18359375 34.37109375 C32.88671875 34.70703125 32.88671875 34.70703125 30.43359375 34.74609375 C29.634375 34.77445313 28.83515625 34.8028125 28.01171875 34.83203125 C17.63526415 33.14084114 11.46783052 24.89747222 4.74707031 17.55078125 C-0.44619582 11.47095617 -0.44619582 11.47095617 -7.19726562 7.6484375 C-10.41201889 7.58420083 -12.57006983 8.2232919 -15.31640625 9.87109375 C-17.43341889 13.39944816 -17.7427357 16.36246455 -16.81640625 20.37109375 C-14.96385144 23.13655666 -14.96385144 23.13655666 -11.81640625 24.37109375 C-6.49428976 24.54277493 -3.86477608 23.75872269 0.18359375 20.30859375 C1.17359375 19.33921875 2.16359375 18.36984375 3.18359375 17.37109375 C5.16359375 19.68109375 7.14359375 21.99109375 9.18359375 24.37109375 C3.71818822 30.16442361 -0.38995335 34.40302659 -8.69140625 34.80859375 C-15.18299087 34.59351113 -19.79201404 32.49930095 -24.25390625 27.80859375 C-27.8576159 22.1868067 -27.38917909 15.83069855 -26.81640625 9.37109375 C-24.24095456 3.93402908 -20.46761297 0.63644241 -15.06640625 -1.94140625 C-9.56643155 -3.10486244 -4.91205473 -2.8409526 0 0 Z " fill="#4B90EF" transform="translate(369.81640625,39.62890625)"/>
<path d="M0 0 C3.63 0 7.26 0 11 0 C11 13.53 11 27.06 11 41 C6.33333333 41 1.66666667 41 -3 41 C-3.99 41.495 -3.99 41.495 -5 42 C-10.60469691 42.37364646 -14.18708503 42.20860998 -19 39 C-23.18651629 34.85874334 -25.13641605 31.21594628 -25.3125 25.3125 C-25.2437601 20.08062952 -24.13430069 16.21475838 -21 12 C-16.7385269 8.2227852 -12.61622277 6.85513711 -7 7 C-3.5 7.9375 -3.5 7.9375 -1 9 C-0.67 6.03 -0.34 3.06 0 0 Z M-14 20 C-15.20362584 23.69111926 -15.34418291 25.29598951 -13.625 28.8125 C-12.18059279 30.86806083 -12.18059279 30.86806083 -11 32 C-7.50774467 32.26356644 -4.82760071 32.3395285 -1.5625 31 C0.46820653 28.40069564 0.5621101 26.18669274 0.3828125 22.94140625 C0.08359665 20.78895272 0.08359665 20.78895272 -1.625 18.5 C-6.08218975 15.68493279 -10.44036849 16.04485388 -14 20 Z " fill="#202020" transform="translate(330,31)"/>
<path d="M0 0 C0.33 -0.66 0.66 -1.32 1 -2 C4.3 -2 7.6 -2 11 -2 C11 8.89 11 19.78 11 31 C7.7 31 4.4 31 1 31 C0.67 30.34 0.34 29.68 0 29 C-0.680625 29.495 -1.36125 29.99 -2.0625 30.5 C-5.77690433 32.3967171 -7.85954295 32.49124067 -12 32 C-17.79622382 30.07877974 -21.12283779 27.52415145 -24 22 C-25.87335963 17.16048763 -25.40036539 12.22216802 -23.8125 7.375 C-21.34280984 2.7762666 -18.90596878 -0.06819304 -14.1875 -2.375 C-8.93433259 -3.40503283 -4.55571823 -3.03714549 0 0 Z M-12.375 8.5625 C-14.62340519 11.93510779 -14.56783945 14.02512383 -14 18 C-12.58333333 20.58333333 -12.58333333 20.58333333 -10 22 C-6.5 22.75 -6.5 22.75 -3 22 C-0.32161427 20.06873898 -0.32161427 20.06873898 1 17 C1 13.1862249 0.84985071 10.97575452 -1.6875 8.0625 C-5.70878369 6.21488317 -8.63874458 6.10443723 -12.375 8.5625 Z " fill="#202020" transform="translate(241,41)"/>
<path d="M0 0 C0.33 0 0.66 0 1 0 C2.8328593 18.85766582 -4.08633684 30.37143198 -14.84423828 45.02392578 C-17.83994831 49.15956624 -20.58411273 53.43544206 -23.3125 57.75 C-24.51455919 59.61969244 -25.71924209 61.48628457 -26.94677734 63.33935547 C-27.96440834 64.94388167 -28.85846643 66.62474854 -29.74609375 68.3046875 C-32.92284195 72.10357182 -36.01369922 72.51885276 -40.75 73.375 C-41.93916016 73.62056641 -41.93916016 73.62056641 -43.15234375 73.87109375 C-45.09717858 74.26943341 -47.04812062 74.63775164 -49 75 C-47.75193939 71.66172764 -46.34444223 68.76120791 -44.38061523 65.79003906 C-43.85449142 64.98940536 -43.32836761 64.18877167 -42.78630066 63.36387634 C-42.21615738 62.5064534 -41.6460141 61.64903046 -41.05859375 60.765625 C-40.4629512 59.86248062 -39.86730865 58.95933624 -39.25361633 58.02882385 C-37.31957113 55.0994376 -35.37880354 52.17458017 -33.4375 49.25 C-32.1140659 47.24972006 -30.79082402 45.24931293 -29.46777344 43.2487793 C-2.46929496 2.46929496 -2.46929496 2.46929496 0 0 Z " fill="#202020" transform="translate(104,16)"/>
<path d="M0 0 C2.125 1.625 2.125 1.625 4.125 4.625 C3.75 6.8125 3.75 6.8125 3.125 8.625 C0.485 8.955 -2.155 9.285 -4.875 9.625 C-5.205 8.965 -5.535 8.305 -5.875 7.625 C-7.89963255 6.97286708 -7.89963255 6.97286708 -9.875 6.625 C-9.875 7.945 -9.875 9.265 -9.875 10.625 C-9.215 10.7075 -8.555 10.79 -7.875 10.875 C-3.39279903 11.99555024 1.77388634 13.48754688 4.33984375 17.546875 C5.54480241 20.73611881 5.48029306 23.24971597 5.125 26.625 C2.92657236 30.15818729 0.95309288 32.07877743 -2.875 33.625 C-8.22461508 34.3199651 -12.59378006 34.27684874 -17.4375 31.8125 C-19.875 29.625 -19.875 29.625 -21.875 26.625 C-21.5 24.4375 -21.5 24.4375 -20.875 22.625 C-16.915 22.13 -16.915 22.13 -12.875 21.625 C-12.545 22.615 -12.215 23.605 -11.875 24.625 C-9.895 24.625 -7.915 24.625 -5.875 24.625 C-6.57333233 21.40072197 -6.57333233 21.40072197 -9.52734375 20.16015625 C-11.71430777 19.17979307 -13.90180689 18.20062267 -16.08984375 17.22265625 C-19.02618944 15.53827282 -19.86728971 14.78859958 -20.875 11.625 C-21.31736088 7.57002528 -21.30649158 5.37181236 -19.25 1.8125 C-13.51218531 -3.47232932 -6.72790826 -3.21769525 0 0 Z " fill="#202020" transform="translate(439.875,39.375)"/>
<path d="M0 0 C3.80817223 2.9354661 4.82465929 4.29863715 6 9 C3.03 9.66 0.06 10.32 -3 11 C-3.33 10.34 -3.66 9.68 -4 9 C-6.02463255 8.34786708 -6.02463255 8.34786708 -8 8 C-8 8.99 -8 9.98 -8 11 C-7.40832031 11.17015625 -6.81664062 11.3403125 -6.20703125 11.515625 C2.77407741 14.270027 2.77407741 14.270027 6 18 C6.98939006 20.73399502 7.28378658 23.1064898 7 26 C5.35086473 29.42512709 4.03308305 31.35063351 0.8125 33.375 C-4.80956625 34.62434805 -9.25902304 34.91796967 -14.4375 32.1875 C-17 30 -17 30 -19 27 C-18.625 24.8125 -18.625 24.8125 -18 23 C-14.625 22.375 -14.625 22.375 -11 22 C-10.34 22.66 -9.68 23.32 -9 24 C-6.42938689 24.64767793 -6.42938689 24.64767793 -4 25 C-4.67889371 21.86731081 -4.67889371 21.86731081 -7.1796875 20.71875 C-8.51386719 20.11546875 -8.51386719 20.11546875 -9.875 19.5 C-15.96824975 16.72872606 -15.96824975 16.72872606 -18 14 C-18.62311223 10.95180236 -18.49967516 8.06467434 -18 5 C-13.63162141 -1.30988019 -6.97479339 -1.97113726 0 0 Z " fill="#202020" transform="translate(152,39)"/>
<path d="M0 0 C3.63 0 7.26 0 11 0 C11 2.64 11 5.28 11 8 C12.98 8 14.96 8 17 8 C17 10.64 17 13.28 17 16 C15.02 16 13.04 16 11 16 C11.33 20.95 11.66 25.9 12 31 C13.98 31.33 15.96 31.66 18 32 C18 34.64 18 37.28 18 40 C13.56119956 42.35811273 9.7431189 42.39912085 5 41 C2.61687297 39.10571954 1.3499441 37.69988821 0 35 C-0.08342159 33.55151418 -0.10732861 32.09929131 -0.09765625 30.6484375 C-0.09443359 29.79765625 -0.09121094 28.946875 -0.08789062 28.0703125 C-0.07951172 27.18085937 -0.07113281 26.29140625 -0.0625 25.375 C-0.05798828 24.4778125 -0.05347656 23.580625 -0.04882812 22.65625 C-0.03702591 20.43743352 -0.02056155 18.21874982 0 16 C-1.65 16 -3.3 16 -5 16 C-5 13.36 -5 10.72 -5 8 C-3.35 8 -1.7 8 0 8 C0 5.36 0 2.72 0 0 Z " fill="#202020" transform="translate(286,31)"/>
<path d="M0 0 C0 3.3 0 6.6 0 10 C-1.258125 10.103125 -2.51625 10.20625 -3.8125 10.3125 C-6.44935727 10.64327185 -7.74549547 10.81938388 -9.9375 12.375 C-12.50029251 16.29456501 -12.32183265 20.67005553 -12.5625 25.1875 C-12.60568359 25.93708984 -12.64886719 26.68667969 -12.69335938 27.45898438 C-12.79922685 29.30578375 -12.9000976 31.15286834 -13 33 C-16.3 33 -19.6 33 -23 33 C-23 22.11 -23 11.22 -23 0 C-19.7 0 -16.4 0 -13 0 C-12.67 1.32 -12.34 2.64 -12 4 C-11.401875 3.360625 -10.80375 2.72125 -10.1875 2.0625 C-6.67096189 -1.25309308 -4.47403252 -1.08827818 0 0 Z " fill="#202020" transform="translate(280,39)"/>
<path d="M0 0 C3.73837969 3.12803199 7.21716676 6.2095719 10.5 9.8125 C13.0641345 12.4169692 14.00564343 13.00162607 17.6875 14.0625 C20.86373253 14.25543464 20.86373253 14.25543464 22.84765625 13.00390625 C25.60640859 11.71715606 27.72161366 11.80289556 30.75 11.875 C31.73484375 11.89304687 32.7196875 11.91109375 33.734375 11.9296875 C34.85585938 11.96449219 34.85585938 11.96449219 36 12 C33.40019575 18.02059933 30.0163626 21.42627267 24 24 C17.11771425 25.00659281 11.72943025 23.86858966 6 20 C5.39671875 19.63390625 4.7934375 19.2678125 4.171875 18.890625 C2.14190304 17.35391726 1.14033981 16.29757354 0 14 C-0.49407852 9.29048555 -0.34887906 4.71632808 0 0 Z " fill="#202020" transform="translate(381,50)"/>
<path d="M0 0 C3.13905639 2.58100192 5.39906538 5.04726492 7.8125 8.3125 C7.8125 8.9725 7.8125 9.6325 7.8125 10.3125 C6.02116022 10.36641993 4.22936101 10.40525571 2.4375 10.4375 C1.43976563 10.46070313 0.44203125 10.48390625 -0.5859375 10.5078125 C-3.1875 10.3125 -3.1875 10.3125 -5.1875 8.3125 C-10.51306449 7.57704511 -10.51306449 7.57704511 -15.26953125 9.65625 C-16.99272945 11.1443071 -18.61775711 12.66426997 -20.1875 14.3125 C-23.0480891 12.95312915 -25.04677699 11.66729531 -27.1875 9.3125 C-24.65990214 3.6161575 -20.43994026 0.25442957 -14.75 -2.125 C-9.11478193 -3.01477127 -5.07353678 -2.68599006 0 0 Z " fill="#202020" transform="translate(409.1875,39.6875)"/>
</svg>
